<svg xmlns="http://www.w3.org/2000/svg" xmlns:xlink="http://www.w3.org/1999/xlink" version="1.1" width="256" height="256" viewBox="0 0 256 256" xml:space="preserve">

<defs>
</defs>
<g style="stroke: none; stroke-width: 0; stroke-dasharray: none; stroke-linecap: butt; stroke-linejoin: miter; stroke-miterlimit: 10; fill: none; fill-rule: nonzero; opacity: 1;" transform="translate(1.4065934065934016 1.4065934065934016) scale(2.81 2.81)" >
	<path d="M 38.516 51.255 H 2.169 C 0.971 51.255 0 50.284 0 49.086 V 16.029 c 0 -1.198 0.971 -2.169 2.169 -2.169 h 36.348 c 1.198 0 2.169 0.971 2.169 2.169 v 33.057 C 40.685 50.284 39.714 51.255 38.516 51.255 z" style="stroke: none; stroke-width: 1; stroke-dasharray: none; stroke-linecap: butt; stroke-linejoin: miter; stroke-miterlimit: 10; fill: rgb(136,192,87); fill-rule: nonzero; opacity: 1;" transform=" matrix(1 0 0 1 0 0) " stroke-linecap="round" />
	<path d="M 39.424 63.057 c -0.469 -0.642 -1.345 -0.868 -2.042 -0.485 c -1.545 0.848 -3.274 1.291 -5.07 1.291 c -4.502 0 -8.344 -2.834 -9.866 -6.807 h 3.731 c 0.459 0 0.881 -0.252 1.1 -0.656 c 0.218 -0.404 0.198 -0.895 -0.053 -1.279 L 16.848 39.256 c -0.231 -0.353 -0.625 -0.566 -1.047 -0.566 c -0.422 0 -0.815 0.213 -1.047 0.566 L 4.379 55.121 c -0.251 0.384 -0.272 0.876 -0.053 1.279 c 0.219 0.404 0.641 0.656 1.1 0.656 h 4.758 c 1.796 10.593 11.032 18.687 22.128 18.687 c 4.212 0 8.256 -1.151 11.795 -3.344 c 0.795 -0.493 0.992 -1.569 0.44 -2.325 L 39.424 63.057 z" style="stroke: none; stroke-width: 1; stroke-dasharray: none; stroke-linecap: butt; stroke-linejoin: miter; stroke-miterlimit: 10; fill: rgb(237,113,97); fill-rule: nonzero; opacity: 1;" transform=" matrix(1 0 0 1 0 0) " stroke-linecap="round" />
	<path d="M 87.831 76.139 H 51.484 c -1.198 0 -2.169 -0.971 -2.169 -2.169 v -30.89 c 0 -1.198 0.971 -2.169 2.169 -2.169 h 36.348 c 1.198 0 2.169 0.971 2.169 2.169 v 30.89 C 90 75.168 89.029 76.139 87.831 76.139 z" style="stroke: none; stroke-width: 1; stroke-dasharray: none; stroke-linecap: butt; stroke-linejoin: miter; stroke-miterlimit: 10; fill: rgb(237,113,97); fill-rule: nonzero; opacity: 1;" transform=" matrix(1 0 0 1 0 0) " stroke-linecap="round" />
	<path d="M 85.67 33.136 c -0.223 -0.413 -0.655 -0.671 -1.125 -0.671 h -4.96 c -2.045 -10.584 -11.375 -18.605 -22.547 -18.605 c -3.893 0 -7.683 0.976 -11.061 2.835 c -0.836 0.46 -1.087 1.548 -0.565 2.346 l 4.87 7.438 c 0.444 0.678 1.325 0.959 2.055 0.606 c 1.456 -0.704 3.058 -1.071 4.701 -1.071 c 4.41 0 8.205 2.657 9.887 6.45 h -3.611 c -0.47 0 -0.902 0.257 -1.125 0.671 c -0.224 0.413 -0.203 0.916 0.054 1.309 l 10.616 16.231 c 0.236 0.361 0.639 0.579 1.071 0.579 s 0.835 -0.218 1.071 -0.579 l 10.616 -16.231 C 85.873 34.052 85.894 33.549 85.67 33.136 z" style="stroke: none; stroke-width: 1; stroke-dasharray: none; stroke-linecap: butt; stroke-linejoin: miter; stroke-miterlimit: 10; fill: rgb(136,192,87); fill-rule: nonzero; opacity: 1;" transform=" matrix(1 0 0 1 0 0) " stroke-linecap="round" />
</g>
</svg>